# xmcd
#
# Track frame offsets: 
#        150
#        9472
#        20758
#        29107
#        39828
#        48729
#        57070
#        67469
#        78459
#        86253
#        96330
#        104836
#        115154
#        127308
#        138830
#
# Disc length: 1986 seconds
#
# Revision: 4
# Processed by: cddbd v1.5.2PL0 Copyright (c) Steve Scherf et al.
# Submitted via: ExactAudioCopyFreeDBPlugin 1.0
#
DISCID=d907c00f
DTITLE=Johnny Cash - Trilogy 2 Hymns By Johnny Cash
DYEAR=2010
DGENRE=Gospel
TTITLE0=It Was Jesus
TTITLE1=I Saw A Man
TTITLE2=Are All The Children In
TTITLE3=Old Account, The
TTITLE4=Lead Me Gently Home, Father
TTITLE5=Swing Low, Sweet Chariot
TTITLE6=Snow In His Hair
TTITLE7=Lead Me Father
TTITLE8=I Call Him
TTITLE9=These Things Shall Pass
TTITLE10=He'll Be A Friend
TTITLE11=God Will
TTITLE12=That's Enough
TTITLE13=Little Drummer Boy
TTITLE14=I Was There When It Happened
EXTD=YEAR: 2010
EXTT0=
EXTT1=
EXTT2=
EXTT3=
EXTT4=
EXTT5=
EXTT6=
EXTT7=
EXTT8=
EXTT9=
EXTT10=
EXTT11=
EXTT12=
EXTT13=
EXTT14=
PLAYORDER=
